<?xml version="1.0" encoding="utf-8"?>
<!-- Generator: Adobe Illustrator 16.0.4, SVG Export Plug-In . SVG Version: 6.00 Build 0)  -->
<!DOCTYPE svg PUBLIC "-//W3C//DTD SVG 1.1//EN" "http://www.w3.org/Graphics/SVG/1.1/DTD/svg11.dtd">
<svg version="1.1" id="Layer_1" xmlns="http://www.w3.org/2000/svg" xmlns:xlink="http://www.w3.org/1999/xlink" x="0px" y="0px"
	 width="1000px" height="1000px" viewBox="0 0 1000 1000" enable-background="new 0 0 1000 1000" xml:space="preserve">
<g>
	<g>
		<linearGradient id="SVGID_1_" gradientUnits="userSpaceOnUse" x1="150.3613" y1="847.3096" x2="826.3613" y2="239.3096">
			<stop  offset="0" style="stop-color:#FBB475"/>
			<stop  offset="1" style="stop-color:#F26524"/>
		</linearGradient>
		<path fill-rule="evenodd" clip-rule="evenodd" fill="url(#SVGID_1_)" d="M219.383,526.53c9.256,3.044,18.828,4.686,28.531,5.441
			c34.284,2.671,67.207-4.331,99.59-14.577c56.274-17.804,107.482-45.89,157.019-77.441
			c81.559-51.948,156.969-111.803,228.249-176.973c20.153-18.426,39.882-37.32,59.672-56.139c3.352-3.187,5.678-3.229,8.51,0.436
			c2.334,3.02,5.001,5.808,7.724,8.492c4.601,4.536,4.699,5.044,0.489,9.664c-17.156,18.831-34.396,37.587-51.454,56.508
			c-49.086,54.449-96.438,110.328-139.246,169.923c-45.772,63.72-85.639,130.729-113.859,204.249
			c-12.82,33.399-21.365,67.561-19.417,103.683c0.662,12.276,2.456,24.4,6.805,36.196c0.671-9.307,1.277-18.618,2.024-27.918
			c2.558-31.87,5.595-63.654,15.954-94.215c3.051-9.001,7.251-17.493,10.991-26.19c1.148-2.671,3.218-3.894,5.996-3.244
			c22.476,5.251,42.18,25.854,36.001,52.969c-1.362,5.979-4.777,11.293-6.191,17.333c-2.002,8.548-2.899,17.16-0.929,25.735
			c3.618,15.745,1.143,31.097-2.289,46.437c-1.416,6.328-2.761,12.687-4.552,18.912c-1.182,4.106-0.013,4.939,3.86,4.16
			c11.323-2.279,22.746-2.869,34.285-1.996c25.963,1.963,46.334,17.019,53.363,39.82c1.122,3.638,1.958,7.424,2.389,11.202
			c0.817,7.164,4.138,12.395,10.404,16.043c8.354,4.863,16.376,10.255,23.454,16.902c13.709,12.876,12.667,22.732-3.411,32.364
			c-26.05,15.605-53.566,28.061-82.175,38.161c-48.273,17.044-97.982,24.715-149.133,22.431
			c-56.434-2.52-109.921-17.108-161.031-40.65c-69.512-32.018-126.084-79.588-169.285-142.805
			c-31.792-46.522-51.928-97.929-62.699-153.092c-7.379-37.795-9.442-75.944-6.839-114.342
			c5.018-74.011,29.156-141.246,71.629-202.005c2.776-3.973,5.205-4.047,9.042-1.706c23.833,14.537,32.679,35.257,26.519,62.571
			c-0.622,2.756-1.147,5.534-1.672,8.312c-1.26,6.67,0.775,12.216,6.071,16.38c7.874,6.19,15.181,12.994,22.219,20.092
			c2.564,2.586,5.037,3.496,8.847,2.407c11.675-3.334,21.729,0.453,28.995,9.571c6.776,8.505,14.669,11.463,25.265,10.378
			c18.031-1.846,35.161,1.206,50.424,11.778c7.215,4.997,13.191,11.23,18.055,18.465c1.92,2.854,4.137,3.846,7.463,3.805
			c11.498-0.145,23-0.114,34.498-0.002c2.022,0.021,4.961-1.441,5.571,2.304c0.55,3.377-1.104,5.262-4.088,6.496
			c-13.844,5.727-27.992,10.526-42.566,14.016c-24.07,5.763-48.49,8.486-73.239,8.295c-5.258-0.041-10.516-0.006-15.774-0.006
			C219.423,525.616,219.403,526.073,219.383,526.53z"/>
		<g>
			<linearGradient id="SVGID_2_" gradientUnits="userSpaceOnUse" x1="586.9482" y1="131.1084" x2="374.9482" y2="327.1084">
				<stop  offset="0" style="stop-color:#97DAF8"/>
				<stop  offset="1" style="stop-color:#00AEEF"/>
			</linearGradient>
			<path fill-rule="evenodd" clip-rule="evenodd" fill="url(#SVGID_2_)" d="M583.238,357.377c-12.8,0.42-24.585-3.477-35.957-8.811
				c-29.396-13.788-60.265-21.228-92.75-20.311c-57.896,1.633-108.757,21.598-152.386,59.879
				c-15.603,13.69-28.963,29.371-41.926,45.473c-11.379,14.134-17.177,15.708-32.67,6.19c-14.143-8.688-29.115-13.284-45.454-14.938
				c-14.309-1.449-20.698-9.523-18.003-23.601c6.323-33.03-4.738-59.823-27.916-82.722c-5.143-5.081-5.148-5.827-0.565-11.612
				c57.553-72.667,131.537-119.7,221.423-141.931c30.327-7.501,61.044-11.87,92.338-12.184
				c101.693-1.019,192.514,29.096,271.126,94.348c0.512,0.426,0.973,0.929,1.527,1.286c3.165,2.038,3.222,3.546,0.044,6.119
				c-17.595,14.255-35.119,28.604-52.396,43.24c-16.892,14.312-33.437,29.032-50.174,43.526
				C609.067,350.364,597.451,356.8,583.238,357.377z"/>
			<linearGradient id="SVGID_3_" gradientUnits="userSpaceOnUse" x1="888.5996" y1="457.3848" x2="676.5996" y2="653.3848">
				<stop  offset="0" style="stop-color:#97DAF8"/>
				<stop  offset="1" style="stop-color:#00AEEF"/>
			</linearGradient>
			<path fill-rule="evenodd" clip-rule="evenodd" fill="url(#SVGID_3_)" d="M563.411,793.35
				c8.799-10.546,16.541-21.701,27.839-29.785c36.401-26.047,65.59-58.314,84.401-99.321
				c17.208-37.512,23.096-76.805,18.612-117.804c-2.565-23.463-8.125-46.148-16.229-68.256c-2.152-5.871-3.063-11.949-2.954-18.129
				c0.068-3.838-1.152-6.202-4.837-7.673c-4.052-1.616-7.562-4.251-10.245-7.758c-4.187-5.473-4.773-11.498-2.521-17.935
				c1.966-5.618,5.421-10.26,9.278-14.669c28.281-32.323,56.558-64.651,84.834-96.979c4.5-5.146,8.782-10.414,11.565-16.776
				c2.016-4.606,3.626-4.808,7.195-1.046c16.681,17.576,31.423,36.648,43.834,57.475c30.353,50.931,48.296,106.009,55.039,164.84
				c8.982,78.368-1.901,153.624-35.259,225.342c-18.488,39.75-43.189,75.231-73.684,106.736
				c-15.443,15.955-32.141,30.444-49.606,44.112c-3.166,2.478-5.288,2.292-8.104-0.449c-10.977-10.687-22.084-21.24-33.237-31.743
				c-5.432-5.115-9.456-11.091-12.411-17.922c-6.217-14.368-14.356-27.369-26.799-37.319
				c-18.196-14.551-39.301-16.761-61.441-14.741C567.085,793.695,565.498,794.411,563.411,793.35z"/>
		</g>
		<path fill-rule="evenodd" clip-rule="evenodd" fill="#0097DC" d="M954.138,50.021c14.229,0.144,14.447,0.164,12.996,15.796
			c-4.892,52.68-30.285,92.261-76.343,118.408c-4.599,2.609-9.655,4.401-14.45,6.677c-9.884,4.692-19.246,3.574-28.514-1.925
			c-9.204-5.461-16.771-12.448-22.375-21.606c-3.597-5.879-4.392-12.02-2.787-18.668c6.122-25.366,21.371-44.69,40.642-61.285
			c23.767-20.468,50.838-33.701,82.368-36.889C948.484,50.245,951.315,50.185,954.138,50.021z"/>
		<path fill-rule="evenodd" clip-rule="evenodd" fill="#005B7F" d="M782.364,149.037c-8.513-0.023-8.792-0.264-5.727-8.37
			c8.356-22.091,23.435-35.883,47.722-37.99c6.842-0.594,7.749,0.668,5.228,7.187c-4.108,10.616-8.995,20.763-17.927,28.342
			C803.205,145.38,793.408,148.899,782.364,149.037z"/>
		<path fill-rule="evenodd" clip-rule="evenodd" fill="#005B7F" d="M916.411,192.83c0.308,12.409-4.812,23.053-13.998,31.863
			c-7.665,7.352-16.833,12.337-26.557,16.43c-3.588,1.511-4.716,0.413-4.916-3.284c-0.812-14.942,4.113-27.401,15.565-37.158
			c7.161-6.101,15.491-10.281,23.865-14.363c4.884-2.38,5.515-1.948,5.8,3.483C916.215,190.631,916.301,191.459,916.411,192.83z"/>
		<path fill-rule="evenodd" clip-rule="evenodd" fill="#F26524" d="M808.833,183.769c-1.163-3.452,2.217-3.529,4.059-4.872
			c2.236-1.63,3.666-0.307,5.084,1.244c6.153,6.729,12.274,13.488,18.483,20.165c2.163,2.326,2.067,4.604,0.67,7.242
			c-1.421,2.681-3.363,1.234-5.145,0.844c-2.582-0.566-5.194-1.096-7.685-1.957C814.075,202.9,809.059,195.548,808.833,183.769z"/>
	</g>
	<g>
		<g>
			<path fill-rule="evenodd" clip-rule="evenodd" fill="#0097DC" d="M573.605,89.913c2.448-2.864,3.552-6.398,4.34-9.918
				c0.851-3.8,2.67-4.278,5.872-2.843c3.182,1.427,6.523,2.505,9.667,4.003c2.595,1.237,4.032,0.547,5.008-2.004
				c1.068-2.794,2.313-5.52,3.403-8.306c1.068-2.729,2.83-3.506,5.503-2.235c6.456,3.068,12.909,6.142,19.395,9.146
				c1.29,0.599,2.998,1.571,2.318,2.731c-2.48,4.237-0.121,5.759,3.197,7.478c1.573,0.815,0.655,2.583-0.055,3.986
				c-2.749,5.436-2.523,6.397,2.695,8.633c3.259,1.396,5.347,2.862,2.842,6.617c-1.104,1.654,0.444,2.226,1.445,3.079
				c1.312,1.12,3.579,1.361,3.611,3.725c-0.383,1.044-0.826,2.057-1.436,2.995c0.711-1.065,1.358-2.18,2.244-3.117
				c3.484-6.244,7.053-12.442,10.416-18.75c1.612-3.024,3.303-3.688,6.241-1.575c3.097,2.227,6.591,3.899,9.7,6.111
				c2.954,2.102,4.477,1.264,6.204-1.642c6.469-10.875,6.497-10.748,16.588-3.129c9.698,7.322,19.532,14.463,29.304,21.688
				c2.129,1.574,4.173,3.101,1.317,5.894c-1.474,1.441-0.45,2.74,0.759,3.801c1.262,1.108,2.66,1.693,3.771-0.078
				c2.116-3.374,4.088-1.678,6.062,0.063c6.115,5.396,12.171,10.861,18.339,16.195c1.766,1.526,2.85,2.828,0.751,4.847
				c-2.114,2.032-0.921,3.572,0.899,4.865c3.082,2.19,3.293,4.518,0.224,6.765c-3.593,2.632-2.572,4.784,0.321,7.093
				c1.553,1.238,2.899,2.737,4.318,4.141c0.725,0.718,1.663,1.896,0.819,2.563c-4.196,3.33-1.336,5.316,1.015,7.811
				c1.505,1.597,0.506,3.399-0.928,4.825c-3.54,3.518-7.111,7.005-10.56,10.61c-2.026,2.12-3.725,2.306-5.848,0.065
				c-3.091-3.261-6.442-6.274-9.602-9.473c-1.79-1.812-3.299-1.99-4.87,0.222c-0.768,1.08-1.695,2.051-2.589,3.036
				c-6.416,7.065-6.411,7.055-0.089,13.586c0.678,0.701,1.808,2.142,1.691,2.266c-3.718,3.96-1.126,6.85,1.331,9.998
				c0.649,0.831-0.52,2.129-1.323,3.006c-3.485,3.803-7.062,7.528-10.407,11.451c-1.993,2.337-3.604,2.329-5.791,0.275
				c-4.973-4.671-10.553-8.786-14.994-13.9c-2.96-3.407,0.702-9.445-3.524-13.051c6.497-5.45,1.979-8.202-1.814-12.748
				c-1.857-2.225-0.404-8.018-2.941-11.836c-0.382-0.575,1.464-2.77,2.446-4.091c6.163-8.281,12.356-16.54,18.58-24.776
				c1.275-1.687,2.59-3.222,0.19-5.023c-9.29-6.978-18.345-14.278-28.962-21.08c0.997,3.7,3.7,4.425,5.618,5.892
				c1.9,1.454,3.968,2.736,1.66,5.57c-1.88,2.31-0.113,3.602,1.748,4.643c2.559,1.431,2.429,3.238,0.928,5.373
				c-3.158,4.492-6.321,8.982-9.393,13.533c-1.578,2.338-3.257,2.415-5.411,0.811c-2.936-2.186-6.079-4.104-8.917-6.404
				c-2.702-2.189-4.288-1.475-5.892,1.28c-3.849,6.611-7.98,13.06-11.754,19.712c-1.86,3.28-3.711,4.22-7.096,1.953
				c-4.556-3.049-9.35-5.743-14.051-8.575c-2.325-1.4-4.261-2.925-2.088-5.895c1.032-1.409,0.828-2.318-0.867-3.024
				c-4.022-1.676-3.061-4.393-1.528-7.346c1.097-2.113,3.244-3.787,3.075-7.891c-1.799,5.212-4.299,4.551-7.035,2.661
				c-0.136-0.093-0.301-0.142-0.452-0.211c-3.303-1.52-6.805-4.57-9.858-4.174c-3.924,0.51-3.309,5.925-4.833,9.122
				c-1.812,3.801-4.438,4.732-8.109,2.993c-4.949-2.345-9.646-5.219-14.866-7.006c-0.721-0.247-1.889-1.27-1.792-1.515
				c1.726-4.363-1.086-6.614-3.732-9.255c-0.93-0.928,0.298-2.829,1.023-4.147c1.837-3.335,0.768-5.454-2.792-6.295
				c-3.238-0.764-5.144-2.226-4.045-5.903c1.188-3.977-2.289-3.074-4.124-3.882c-2.053-2.348-0.633-4.707,0.054-7.008
				c0.708-2.374,1.493-4.729,2.358-7.05c1.215-3.493,2.364-7.01,3.474-10.543C572.331,90.624,572.775,90.049,573.605,89.913z"/>
			<path fill-rule="evenodd" clip-rule="evenodd" fill="#0097DC" d="M573.605,89.913c-0.191,0.179-0.384,0.356-0.576,0.534
				c-1.505,2.404-3.597,1.254-5.293,0.594c-8.184-3.184-16.724-5.214-23.354-7.39c3.892,0.846,9.184,3.212,14.832,4.397
				c3.345,0.702,6.004,2.092,5.947,6.121c-0.024,1.75,1.121,2.687,2.492,3.426c1.739,0.938,2.152,2.4,1.727,4.219
				c-2.39,4.17-2.705,9.15-5.209,13.272c-2.37,6.735-4.872,13.428-7.055,20.224c-1.08,3.366-2.711,3.97-5.943,2.791
				c-11.538-4.205-11.635-4.136-14.335,8.023c-0.775,3.493-2.49,4.715-5.994,3.927c-9.888-2.226-19.806-4.32-29.708-6.484
				c-0.646-0.141-1.264-0.416-1.887-0.648c-3.522-1.315,2.304-6.251-2.763-7.042c-4.893-0.765-2.46-4.281-2.132-6.643
				c0.639-4.599,2.037-9.098,2.575-13.702c0.524-4.488,2.597-5.403,6.688-4.482c7.289,1.643,14.654,2.954,21.992,4.379
				c1.492,0.29,3.048,1.196,5.229-0.551c-6.896-2.507-13.562-3.285-20.028-4.799c-3.166-0.741-7.296-0.352-4.962-5.804
				c0.455-1.062-0.525-1.977-1.562-2.147c-4.504-0.739-3.802-3.744-3.103-6.809c2.327-10.205,4.778-20.386,6.9-30.634
				c0.839-4.054,2.523-5.935,6.742-4.557c0.472,0.154,0.972,0.225,1.461,0.323c10.433,2.104,10.433,2.104,13.798-7.785
				c1.815-5.334,3.429-6.431,8.911-4.895c11.355,3.181,22.633,6.642,33.94,9.997c0.633,0.188,1.238,0.466,1.86,0.691
				c3.904,1.421-3.027,6.387,2.838,7.787c5.262,1.256,2.097,5.274,1.171,8.135C577.126,79.576,574.219,84.358,573.605,89.913z"/>
		</g>
		<g>
			<path fill-rule="evenodd" clip-rule="evenodd" fill="#F26524" d="M275.147,87.451c3.308-3.923,0.823-7.164,0.513-10.204
				c-0.765-7.503-0.29-9.003,6.464-12.04c4.542-2.041,9.19-3.848,13.812-5.704c2.167-0.87,4.249-1.556,4.262,2.167
				c0.01,2.759,1.729,2.906,3.747,1.892c2.573-1.294,3.442,0.318,3.698,2.306c0.872,6.764,1.56,13.551,2.354,20.325
				c0.305,2.601-1.432,3.406-3.385,4.186c-4.205,1.677-8.377,3.436-12.364,5.654c2.789,1.334,4.88-0.335,6.945-1.285
				c2.242-1.031,3.002-0.312,3.393,1.686c0.432,2.21,0.516,4.408,3.957,2.732c2.335-1.137,3.153,0.815,3.426,2.872
				c1.622,12.202,3.208,24.409,4.929,36.597c0.373,2.64-0.652,4.04-2.937,5.011c-5.047,2.146-10.054,4.385-15.081,6.576
				c-0.604,0.264-1.215,0.573-1.854,0.686c-3.79,0.669-0.958-6.581-5.141-4.664c-4.866,2.23-4.128-1.639-4.59-3.746
				c-1.317-6.008-2.315-12.087-3.413-18.143c-0.255-1.406-0.474-2.799-1.809-4.145c-1.753,2.681-0.217,4.899,0.141,6.942
				c1.32,7.528,2.975,15,4.598,22.473c0.922,4.247,0.229,7.351-4.393,9.116c-3.383,1.292-6.443,3.431-9.646,5.196
				c-1.02,0.562-2.019,1.163-3.054,1.696c-0.924,0.476-2.702,0.647-2.723,0.048c-0.216-6.122-8.299,0.199-9.343-6.722
				c-1.9-12.598-5.797-24.895-9.001-37.885c-9.419,6.219-18.552,12.225-27.651,18.281c-1.503,1.001-2.155,2.323-1.414,4.289
				c0.995,2.636,1.616,5.41,2.504,8.09c0.778,2.348,1.063,5.58,2.73,6.725c1.964,1.348,3.706-2.053,5.851-2.818
				c0.785-0.28,2.226-0.783,2.24-0.425c0.25,6.609,9.171-1.165,9.733,6.234c0.443,5.828,3.072,11.507,4.877,17.205
				c0.636,2.008,0.512,3.447-1.327,4.747c-5.3,3.746-10.523,7.603-15.779,11.412c-0.269,0.194-0.541,0.419-0.847,0.523
				c-3.614,1.227-1.655-5.547-5.004-3.754c-2.654,1.421-4.075,2.535-5.36-1.295c-1.924-5.732-2.113-5.669-6.866-2.318
				c-0.136,0.096-0.257,0.213-0.392,0.31c-0.813,0.588-2.523,1.294-2.592,0.886c-1.059-6.347-8.554,1.606-10.313-5.158
				c-2.538-9.762-6.798-19.069-10.213-28.61c-2.537-7.088-1.961-8.792,3.887-13.144c8.331-6.199,8.604-6.454,5.199-16.086
				c-1.863-5.268-0.815-8.834,3.859-11.884c10.03-6.543,19.877-13.365,29.848-20.001c1.484-0.987,3.444-3.046,4.421,0.609
				c0.396,1.479,0.001,3.761,2.847,2.55c2.064-0.878,4.087-1.666,3.434-4.597c-1.301-5.839-2.476-11.706-3.821-17.534
				c-1.432-6.204-0.833-7.534,4.654-10.279c5.2-2.602,10.332-5.34,15.504-7.998c1.016-0.522,3.125-1.195,3.102-0.871
				c-0.535,7.389,8.974,0.945,9.594,7.234C272.124,71.15,273.745,78.819,275.147,87.451z"/>
			<path fill-rule="evenodd" clip-rule="evenodd" fill="#F26524" d="M426.002,98.258c-0.346,5.265-0.827,10.24-0.946,15.226
				c-0.074,3.112-1.233,4.476-4.404,4.661c-5.143,0.301-10.281,0.826-15.39,1.494c-2.512,0.329-3.887-0.161-3.832-2.944
				c0.029-1.481,0.113-3.604-1.929-3.34c-4.349,0.562-4.53-1.483-4.035-4.881c0.493-3.374-0.75-5.481-4.78-4.631
				c-3.014,0.636-5.419,0.216-4.83-3.868c0.159-1.101-0.29-2.002-1.604-1.968c-1.408,0.037-2.316,0.982-2.154,2.238
				c1.229,9.544-5.51,10.523-12.28,11.842c-5.699,1.109-11.312,2.672-16.947,4.096c-0.905,0.229-2.201,0.555-1.867,1.847
				c0.38,1.467,1.584,0.646,2.45,0.449c1.293-0.295,2.595-0.607,3.837-1.063c1.827-0.672,2.741-0.429,2.774,1.818
				c0.027,1.805,0.323,4.18,2.831,3.809c3.864-0.571,3.95,1.596,4.056,4.351c0.211,5.484,0.473,10.975,1.005,16.434
				c0.314,3.222-0.655,4.938-3.91,5.716c-4.681,1.119-9.272,2.616-13.908,3.929c-0.79,0.224-1.608,0.443-2.421,0.476
				c-3.834,0.151,0.348-6.416-4.238-5.299c-4.565,1.113-4.268-2.07-4.33-4.557c-0.092-3.683-0.846-5.25-4.916-3.453
				c-2.498,1.103-5.487,1.346-5.289-3.104c0.075-1.673-1.076-1.974-2.356-1.423c-3.941,1.696-4.169-1.131-4.471-3.674
				c-2.039-17.175-3.928-34.368-6.104-51.524c-0.584-4.608,1.037-6.936,5.471-7.646c1.637-0.262,3.272-0.603,4.868-1.051
				c5.267-1.477,7.028-4.14,6.418-9.551c-1.24-10.996-1.265-11.102,9.653-13.793c9.352-2.306,18.772-4.334,28.162-6.489
				c2.468-0.566,4.814-1.015,4.595,2.835c-0.076,1.34-0.075,2.837,1.875,2.848c2.183,0.012,2.761-1.388,2.784-3.304
				c0.084-6.991,0.416-13.985,0.247-20.969c-0.102-4.224,1.296-5.949,5.66-6.165c5.965-0.295,11.889-1.354,17.84-1.999
				c2.529-0.274,4.874-0.143,4.215,3.551c-0.331,1.856,0.47,2.935,2.466,2.69c3.488-0.427,4.541,1.201,3.87,4.401
				c-0.985,4.697,0.827,6.567,5.612,5.752c3.149-0.536,5.912-0.379,4.809,4.209c-0.637,2.647,1.28,2.672,3.013,2.45
				c3.134-0.401,3.729,1.229,3.447,3.86c-0.674,6.284-1.304,12.573-1.907,18.865c-0.267,2.779-2.02,3.561-4.468,3.59
				c-2.996,0.034-5.991,0.141-8.986,0.174c-3.309,0.037-4.732,1.604-4.712,4.977c0.021,3.649-0.219,7.322-0.659,10.947
				c-0.396,3.266,0.44,4.847,3.995,4.136c3.792-0.758,6.859-0.525,6.034,4.724c-0.141,0.899,0.479,1.812,1.4,1.698
				C428.212,90.854,425.608,95.613,426.002,98.258z"/>
			<path fill-rule="evenodd" clip-rule="evenodd" fill="#F26524" d="M169.494,162.256c1.76-1.512,3.083-2.514,4.245-3.675
				c2.287-2.285,4.409-3.947,6.179,0.466c0.712,1.775,1.827,0.96,2.746,0.221c3.02-2.428,4.258-0.783,5.324,2.068
				c3.953,10.576,7.945,21.14,12.072,31.649c1.223,3.114,0.736,5.473-1.922,7.431c-0.938,0.69-1.872,1.386-2.802,2.086
				c-7.121,5.36-7.512,7.036-3.558,15.003c4.776,9.62,3.886,7.882-2.832,13.868c-2.609,2.324-5.208,4.664-7.891,6.901
				c-1.913,1.595-3.245,4.384-6.771,1.8c-1.805-1.323-3.012,2.019-4.935,2.976c-1.555-2.675-3.119-5.365-4.854-8.35
				c-1.311,1.4-2.48,2.562-3.548,3.811c-1.728,2.021-2.665,4.554-5.817,0.69c-2.427-2.975-3.694,1.763-6.062,2.87
				c-6.052-11.773-12.09-23.568-18.191-35.33c-0.895-1.726-0.769-3.126,0.497-4.549c1.877-2.109,3.528-4.453,5.585-6.363
				c5.525-5.13,6.097-7.363,3.014-13.873c-4.274-9.023-4.275-9.024,2.838-16.142c3.884-3.887,7.772-7.769,11.659-11.653
				c1.577-1.576,2.947-2.3,3.919,0.602c0.791,2.36,2.139,2.828,3.913,0.773c2.41-2.79,3.737-1.644,4.75,1.236
				C167.653,158.483,168.521,160.102,169.494,162.256z"/>
			<path fill-rule="evenodd" clip-rule="evenodd" fill="#F26524" d="M114.496,197.565c2.729,6.793,5.471,4.271,8.257-0.45
				c3.941,7.489,7.499,14.19,10.99,20.926c0.892,1.719,0.113,3.164-1.022,4.551c-2.53,3.089-4.796,6.416-7.516,9.323
				c-2.607,2.788-2.642,5.179-0.694,8.413c6.944,11.535,13.51,23.298,20.483,34.814c2.328,3.846,2.27,6.862-0.549,10.38
				c-3.217,4.016-6.081,8.335-8.843,12.685c-2.168,3.413-4.142,5.586-7.146,0.541c-0.901,1.116-1.704,1.948-2.318,2.901
				c-1.588,2.466-2.719,1.601-3.993-0.332c-9.336-14.168-18.7-28.317-28.09-42.449c-1.931-2.906-1.634-5.49,0.438-8.23
				c2.607-3.448,4.916-7.121,7.462-10.618c1.503-2.065,1.349-3.68-0.218-5.775c-6.77-9.057-6.309-14.666,1.443-22.824
				c2.059-2.167,4.003-4.45,5.896-6.765C110.85,202.487,112.486,200.208,114.496,197.565z"/>
		</g>
		<path fill-rule="evenodd" clip-rule="evenodd" fill="#005B7F" d="M452.003,65.789c12.349-0.079,24.601,1.354,36.872,2.43
			c2.923,0.256,6.51,0.37,4.743,5.213c-0.668,1.829,0.722,2.526,2.126,2.487c3.583-0.1,3.746,2.075,3.232,4.622
			c-1.218,6.031-2.609,12.027-3.796,18.064c-0.498,2.531-1.934,3.276-4.277,2.958c-16.526-2.238-33.169-2.767-49.805-3.414
			c-0.818-0.031-2.338-0.165-2.345-0.306c-0.281-6.091-10.323-8.153-6.323-16.341c1.643-3.362,1.16-7.848,1.305-11.834
			c0.123-3.375,1.65-4.146,4.776-3.951C442.991,65.998,447.504,65.789,452.003,65.789z"/>
		<path fill-rule="evenodd" clip-rule="evenodd" fill="#D1D1CE" d="M564.172,115.087c1.02-4.612,1.954-9.257,5.036-13.075
			c0.169-0.032,0.339-0.064,0.508-0.098c-0.801,4.774-3.65,9.022-3.597,14.016C565.47,115.648,564.821,115.367,564.172,115.087z"/>
		<path fill-rule="evenodd" clip-rule="evenodd" fill="#D2D1CF" d="M643.656,113.884c-0.908,2.365-1.328,5.043-4.639,6.918
			c1.027-3.044,1.614-5.346,3.832-6.796C643.095,113.817,643.364,113.776,643.656,113.884z"/>
		<path fill-rule="evenodd" clip-rule="evenodd" fill="#FEFEFE" d="M747.863,144.357c-0.522,0.821-0.885,1.572-1.411,2.181
			c-1.305,1.509-2.709,2.931-4.03,4.426c-4.213,4.764-4.172,5.208,0.497,9.601c2.301,2.164,4.485,4.456,6.853,6.543
			c2.832,2.498,2.948,4.97,0.382,7.682c-0.912,0.964-1.805,1.962-2.582,3.034c-2.694,3.718-5.181,3.899-8.289,0.216
			c-2.338-2.77-5.449-4.87-8.012-7.47c-2.435-2.471-4.229-1.791-6.151,0.567c-4.828,5.925-9.803,11.729-14.564,17.706
			c-1.855,2.329-3.225,3.239-5.742,0.647c-2.532-2.605-5.51-4.814-8.461-6.966c-2.342-1.708-2.875-3.204-0.932-5.681
			c11.393-14.515,22.696-29.098,33.979-43.698c1.757-2.274,3.234-2.929,5.601-0.617c3.323,3.246,6.971,6.159,10.445,9.253
			C746.297,142.54,747.017,143.447,747.863,144.357z"/>
		<path fill-rule="evenodd" clip-rule="evenodd" fill="#FEFEFE" d="M682.783,133.419c0.057,0.877-7.162,11.751-7.961,11.932
			c-1.105,0.25-1.818-0.558-2.615-1.083c-3.059-2.013-6.139-3.996-9.143-6.089c-2.947-2.053-5.15-1.602-6.949,1.561
			c-3.618,6.361-7.466,12.595-10.959,19.021c-1.938,3.565-3.891,5.389-7.586,2.13c-0.727-0.641-1.729-0.981-2.626-1.418
			c-8.52-4.145-8.525-4.924-3.9-12.938c8.225-14.251,16.102-28.703,24.076-43.098c3.415-6.164,3.483-6.207,9.121-2.453
			c2.215,1.474,4.403,3.066,6.807,4.156c4.37,1.982,4.146,4.513,1.398,7.655c-0.438,0.5-0.82,1.049-1.226,1.578
			c-4.902,6.39-4.523,8.117,2.57,12.278c2.438,1.43,4.811,2.97,7.194,4.49C681.834,131.683,682.589,132.341,682.783,133.419z"/>
		<path fill-rule="evenodd" clip-rule="evenodd" fill="#FEFEFE" d="M588.423,120.161c3.262,1.514,6.814,2.945,10.151,4.771
			c3.307,1.811,4.903,0.992,6.328-2.446c3.111-7.509,6.765-14.792,9.939-22.277c1.368-3.228,3.018-4.152,6.016-2.146
			c0.686,0.459,1.457,0.791,2.193,1.174c10.354,5.386,10.341,5.378,5.205,15.681c-2.515,5.047-5.031,10.094-7.417,15.202
			c-1.321,2.829-2.965,3.688-5.868,2.026c-2.869-1.643-5.899-3.011-8.902-4.406c-2.565-1.193-4.359-0.724-5.325,2.303
			c-0.854,2.673-2.375,5.134-3.224,7.808c-0.987,3.108-2.688,3.354-5.215,1.961c-0.723-0.398-1.521-0.654-2.281-0.986
			c-9.282-4.063-10.521-9.752-3.862-17.575C586.73,120.581,587.246,120.019,588.423,120.161z"/>
		<path fill-rule="evenodd" clip-rule="evenodd" fill="#FEFEFE" d="M718.279,119.695c-1.877,3.545-4.075,6.659-6.969,9.177
			c-2.253,1.96-4.447,0.495-6.357-0.816c-8.78-6.026-17.507-12.132-26.238-18.229c-0.945-0.659-2.37-1.59-1.735-2.711
			c2.198-3.881,4.647-7.628,7.157-11.319c0.743-1.093,1.857-0.206,2.642,0.314c10.271,6.805,20.178,14.12,29.937,21.634
			C717.326,118.215,717.714,118.977,718.279,119.695z"/>
		<path fill-rule="evenodd" clip-rule="evenodd" fill="#FEFEFE" d="M584.492,82.058c4.15,1.765,8.912,3.693,13.581,5.827
			c1.51,0.69,0.541,1.97,0.11,3.018c-3.473,8.438-6.921,16.888-10.408,25.32c-1.09,2.635-2.666,3.719-5.351,1.684
			c-2.554-1.936-5.649-2.781-8.629-3.797c-2.368-0.808-3.064-2.027-2.095-4.513c3.255-8.348,6.315-16.771,9.493-25.148
			C581.648,83.252,582.038,81.814,584.492,82.058z"/>
		<path fill-rule="evenodd" clip-rule="evenodd" fill="#FDFDFD" d="M622.162,83.086c-1.006,3.897-3.008,7.523-4.987,11.152
			c-0.192,0.354-0.771,0.612-1.211,0.696c-2.219,0.422-13.895-5.299-14.97-7.229c-0.735-1.321-0.367-2.552,0.074-3.827
			c3.796-10.955,5.009-11.508,15.317-6.483C618.82,78.581,621.854,79.353,622.162,83.086z"/>
		<path fill-rule="evenodd" clip-rule="evenodd" fill="#FDFDFD" d="M721.254,206.478c-1.11,4.322-4.599,6.83-7.85,9.189
			c-2.558,1.857-3.804-1.579-5.614-2.671c-0.834-0.502-1.471-1.327-2.213-1.987c-7.57-6.74-7.464-9.494,0.495-15.916
			c1.151-0.929,2.321-1.59,3.557-0.68c4.001,2.946,7.826,6.115,10.836,10.127C720.843,205.043,720.963,205.739,721.254,206.478z"/>
		<path fill-rule="evenodd" clip-rule="evenodd" fill="#FEFEFE" d="M569.716,101.914l-0.27-0.031l-0.238,0.129
			c-0.336-1.194,0.121-2.874-1.7-3.203c-3.586-0.646-4.381-2.455-3.29-5.94c0.742-2.369-1.688-2.805-3.427-3.316
			c-6.188-1.822-12.371-3.661-18.575-5.425c-1.405-0.399-2.822-0.651-3.861-1.74c0.729-1.906,1.857-1.137,2.924-0.811
			c9.332,2.857,18.679,5.669,27.991,8.589c1.287,0.404,2.436,1.049,3.76,0.282C573.146,94.622,570.754,98.072,569.716,101.914z"/>
		<path fill-rule="evenodd" clip-rule="evenodd" fill="#F1F1F0" d="M600.719,119.969c-1.622-0.11-1.92-0.914-1.575-1.731
			c1.983-4.702,4.036-9.376,6.118-14.035c0.353-0.79,1.097-1.345,1.988-0.826c0.579,0.336,0.796,1.034,0.473,1.734
			c-2.136,4.635-4.274,9.269-6.426,13.896C601.094,119.441,600.8,119.835,600.719,119.969z"/>
		<path fill-rule="evenodd" clip-rule="evenodd" fill="#DBDAD8" d="M630.854,138.868c0.229-5.777,3.243-10.192,7.269-14.104
			C635.699,129.465,633.276,134.166,630.854,138.868z"/>
		<path fill-rule="evenodd" clip-rule="evenodd" fill="#FEFEFE" d="M269.471,117.521c1.954,9.473,3.604,18.643,5.833,27.669
			c0.834,3.378-0.059,4.998-2.936,6.164c-0.457,0.186-0.854,0.516-1.285,0.768c-9.796,5.72-9.724,5.703-12.12-5.274
			c-5.131-23.514-10.257-47.03-15.604-70.495c-0.984-4.32-0.274-6.945,4.09-8.533c2.63-0.956,5.085-2.488,7.472-3.993
			c3.125-1.97,4.552-1.566,5.143,2.396c1.274,8.549,3.099,17.016,4.399,25.562c0.62,4.077,1.942,5.342,5.755,2.984
			c2.392-1.479,5.071-2.482,7.569-3.8c2.666-1.407,4.268-1.413,4.448,2.304c0.151,3.144,0.979,6.247,1.302,9.39
			c0.339,3.299,1.965,3.839,4.693,2.564c2.857-1.334,5.682-2.746,8.583-3.974c2.519-1.064,3.984-0.442,4.396,2.623
			c1.242,9.232,2.602,18.452,4.163,27.635c0.396,2.332-0.421,3.379-2.255,4.258c-2.698,1.294-5.437,2.527-8.029,4.012
			c-3.577,2.05-4.52,0.281-5.052-2.951c-1.486-9.024-3.197-18.013-4.666-27.039c-0.43-2.641-1.098-3.543-3.759-1.995
			c-2.714,1.58-5.681,2.722-8.528,4.074C270.551,113.07,269.402,115.118,269.471,117.521z"/>
		<path fill-rule="evenodd" clip-rule="evenodd" fill="#FEFEFE" d="M203.004,181.566c-3.646-10.127-7.287-20.213-10.897-30.31
			c-0.496-1.387-0.125-2.622,1.048-3.567c3.619-2.916,7.158-5.938,10.885-8.708c2.555-1.897,2.551,0.721,2.99,2.095
			c2.675,8.372,5.276,16.768,7.934,25.145c1.543,4.866,2.341,4.994,6.35,1.65c9.896-8.252,9.762-6.601,13.487,4.521
			c1.179,3.521,0.204,6.741-3.361,8.413c-3.132,1.469-5.585,6.07-8.467,5.1c-2.966-1-2.698-6.003-3.881-9.231
			c-2.311-6.305-2.317-6.365-7.162-2.211c-2.52,2.161-5.035,4.329-7.567,6.476C204.12,181.144,203.768,181.221,203.004,181.566z"/>
		<path fill-rule="evenodd" clip-rule="evenodd" fill="#FEFEFE" d="M202.57,123.069c-0.208-3.07,1.585-5.07,3.811-6.626
			c7.771-5.432,15.639-10.725,23.429-16.13c1.965-1.363,2.978-1.052,3.242,1.365c0.036,0.325,0.163,0.644,0.268,0.959
			c4.379,13.217,4.306,13.097-7.586,20.424c-5.517,3.399-10.812,7.198-15.96,11.138c-3.211,2.457-4.358,1.859-5.104-1.938
			C204.063,129.186,202.706,126.261,202.57,123.069z"/>
		<path fill-rule="evenodd" clip-rule="evenodd" fill="#FDFDFD" d="M297.678,78.029c0.602,2.579-0.261,3.567-1.817,4.266
			c-3.762,1.689-7.506,3.42-11.226,5.2c-2.22,1.062-3.182-0.071-3.358-2.01c-0.33-3.632-0.886-7.203-1.662-10.771
			c-0.589-2.713,1.131-4.296,3.511-5.246c2.449-0.977,4.945-1.855,7.327-2.976c5.146-2.421,5.904-2.041,6.405,3.47
			C297.127,72.925,297.458,75.88,297.678,78.029z"/>
		<path fill-rule="evenodd" clip-rule="evenodd" fill="#FEFEFE" d="M341.091,125.896c-3.679,1.024-7.295,2.19-10.713,3.953
			c-2.762,1.424-4.555,1.157-4.942-2.622c-1.575-15.375-3.344-30.729-5.021-46.093c-0.069-0.638-0.095-1.358,0.13-1.935
			c0.539-1.379,13.79-5.829,15.198-5.156c1.298,0.621,1.171,1.916,1.277,3.033c0.314,3.309,0.571,6.622,0.819,9.936
			c0.115,1.527,0.098,2.891,2.263,3.151c7.718,0.93,14.021-4.409,14.06-12.074c0.05-9.942,0.05-9.939-9.541-7.387
			c-1.283,0.341-2.601,0.567-3.864,0.966c-2.407,0.762-3.896,0.331-3.804-2.58c0.021-0.653-0.159-1.318-0.284-1.971
			c-2.216-11.553-0.595-13.521,11.118-15.257c6.388-0.947,12.692-2.566,18.958-4.177c3.134-0.806,4.259-0.062,4.289,3.187
			c0.14,15.131,0.379,30.26,0.651,45.388c0.057,3.166-1.678,4.241-4.449,4.905c-7.585,1.816-15.079,4.024-22.687,5.732
			c-3.625,0.814-5.11,2.46-4.65,6.188c0.529,4.283,0.744,8.606,1.094,12.912L341.091,125.896z"/>
		<path fill-rule="evenodd" clip-rule="evenodd" fill="#FEFEFE" d="M400.058,90.959c-3.625,0.403-7.26,0.725-10.871,1.231
			c-4.215,0.593-5.726-1.377-5.649-5.346c0.306-15.787,0.522-31.575,0.818-47.362c0.087-4.65,0.351-9.297,0.483-13.946
			c0.061-2.134,0.878-3.447,3.176-3.648c3.469-0.305,6.957-0.541,10.385-1.116c3.837-0.644,4.794,1.222,4.424,4.487
			c-0.28,2.469-0.633,4.931-1.026,7.383c-0.648,4.043,1.239,5.553,5.065,5.181c3.137-0.305,6.267-0.7,9.409-0.912
			c1.274-0.086,2.62-0.113,3.36,1.471c2.699,5.774-2.452,15.32-8.749,16.104c-9.438,1.174-9.284,1.188-10.125,11.182
			c-0.712,8.461-1.038,16.914-0.802,25.395L400.058,90.959z"/>
		<path fill-rule="evenodd" clip-rule="evenodd" fill="#FCFCFC" d="M399.956,91.061c3.978-0.324,7.969-0.536,11.929-1.009
			c2.974-0.355,4.499,0.502,4.132,3.718c-0.131,1.154-0.124,2.325-0.164,3.488c-0.337,9.623-4.568,13.085-13.994,11.586
			c-2.476-0.394-2.799-1.945-2.673-3.953c0.293-4.644,0.581-9.288,0.871-13.932L399.956,91.061z"/>
		<path fill-rule="evenodd" clip-rule="evenodd" fill="#FDFDFD" d="M340.994,125.996c4.021-0.137,7.725-1.595,11.45-2.873
			c3.276-1.123,4.695-0.24,4.427,3.297c-0.112,1.478,0.105,2.977,0.126,4.467c0.127,8.979-2.106,11.373-11.017,12.24
			c-2.078,0.202-3.043-0.2-3.244-2.429c-0.444-4.942-1.086-9.867-1.646-14.801C341.091,125.896,340.994,125.996,340.994,125.996z"/>
		<path fill-rule="evenodd" clip-rule="evenodd" fill="#FEFEFE" d="M529.524,70.516c-0.837,2.864-1.496,5.796-2.555,8.575
			c-1.458,3.825-0.513,5.737,3.649,6.695c7.931,1.825,15.724,4.244,23.642,6.132c3.961,0.945,5.225,2.566,3.722,6.632
			c-2.764,7.474-5.28,15.051-7.566,22.684c-1.076,3.593-2.736,4.587-6.16,3.114c-1.663-0.715-3.508-1.003-5.265-1.505
			c-5.956-1.701-6.478-1.395-8.139,4.83c-2.666,9.991-2.656,9.942-13.003,7.721c-5.035-1.081-10.101-2.051-15.185-2.863
			c-3.547-0.566-5.68-1.591-3.949-5.813c0.731-1.783,0.501-3.941,0.859-5.901c0.955-5.228,2.768-6.438,7.992-5.252
			c7.128,1.618,14.266,3.208,21.336,5.055c3.153,0.823,4.781,0.407,5.767-3.106c3.616-12.89,3.734-12.844-9.291-15.542
			c-5.37-1.113-10.716-2.349-16.094-3.42c-3.115-0.621-4.101-2.239-3.332-5.341c2.08-8.389,4.073-16.8,5.962-25.232
			c0.59-2.636,1.771-3.744,4.52-3.086c3.391,0.812,6.814,1.49,10.237,2.159C528.597,67.427,529.735,68.296,529.524,70.516z"/>
		<path fill-rule="evenodd" clip-rule="evenodd" fill="#FEFEFE" d="M540.258,52.462c8.584,2.526,18.428,5.46,28.301,8.297
			c1.783,0.513,1.936,1.503,1.473,2.968c-0.1,0.315-0.171,0.641-0.264,0.959c-3.774,12.872-3.776,12.876-16.731,9.17
			c-6.365-1.82-12.708-3.724-19.095-5.461c-2.365-0.644-3.425-1.519-2.379-4.175c1.148-2.917,1.783-6.032,2.804-9.006
			C535.079,53.139,536.55,51.918,540.258,52.462z"/>
		<path fill-rule="evenodd" clip-rule="evenodd" fill="#FEFEFE" d="M161.853,175.402c4.256-3.926,8.052-7.354,11.756-10.877
			c1.924-1.83,2.788-2.095,3.872,0.955c2.835,7.973,5.999,15.838,9.329,23.618c1.553,3.629,1.777,6.352-1.591,9.221
			c-3.131,2.667-5.631,6.075-8.85,9.646c-4.25-9.706-8.535-18.949-12.32-28.393c-1.604-4.003-3.011-3.885-5.639-1.144
			c-3.215,3.354-6.593,6.551-10.256,10.168c-2.033-4.41-4.003-8.724-6.011-13.019c-0.75-1.604-0.294-2.816,0.901-4.013
			c3.293-3.294,6.541-6.636,9.767-9.996c2.044-2.13,3.123-0.93,3.943,1.087C158.421,166.756,160.044,170.875,161.853,175.402z"/>
		<path fill-rule="evenodd" clip-rule="evenodd" fill="#FEFEFE" d="M175.686,209.023c0.625,0.476,0.805,0.545,0.87,0.673
			c7.088,14.042,6.643,15.936-6.278,26.07c-1.877-3.923-3.804-7.766-5.56-11.687c-1.169-2.611-2.495-2.885-4.338-0.705
			c-2.473,2.924-5.058,5.761-7.39,8.792c-1.698,2.207-2.63,1.816-3.789-0.424c-4.2-8.118-8.504-16.183-12.748-24.278
			c-0.822-1.567-1.091-3.387,0.034-4.742c3.187-3.839,6.417-7.673,9.974-11.159c2.154-2.111,2.719,0.608,3.324,1.894
			c3.676,7.815,7.402,15.614,10.794,23.554c1.568,3.67,2.98,3.782,5.604,1.041C169.166,214.935,172.434,212.089,175.686,209.023z"/>
		<path fill-rule="evenodd" clip-rule="evenodd" fill="#F1F1F0" d="M162.222,190.027c3.912,4.679,5.942,10.275,8.347,15.674
			c0.325,0.73-0.217,1.207-0.739,1.64c-0.596,0.493-1.022-0.031-1.183-0.368C166.039,201.518,163.229,196.131,162.222,190.027z"/>
		<path fill-rule="evenodd" clip-rule="evenodd" fill="#FEFEFE" d="M108.359,238.058c1.746,0.724,2.303,2.169,3.064,3.438
			c6.94,11.549,13.795,23.151,20.869,34.618c2.11,3.42,2.408,6.221-0.281,9.492c-2.717,3.308-4.957,7.009-7.732,11.007
			c-7.617-11.808-14.998-23.247-22.377-34.688c-1.081-1.676-2.104-3.394-3.243-5.028c-1.189-1.708-1.294-3.308-0.047-5.048
			C101.898,247.263,105.128,242.637,108.359,238.058z"/>
		<path fill-rule="evenodd" clip-rule="evenodd" fill="#FDFDFD" d="M113.302,205.526c1.068,1.847,1.783,2.956,2.373,4.129
			c1.74,3.455,5.646,6.19,4.562,10.604c-1.479,6.028-6.502,9.842-10.07,14.556c-1.11,1.467-2.002,0.475-2.625-0.621
			c-1.961-3.45-3.842-6.946-5.833-10.378c-0.792-1.364-0.565-2.507,0.32-3.656C105.65,215.459,109.271,210.759,113.302,205.526z"/>
		<path fill-rule="evenodd" clip-rule="evenodd" fill="#FEFEFE" d="M481.047,89.02c-13.883-1.094-27-1.856-40.149-1.828
			c-3.562,0.008-4.786-0.795-4.276-4.949c1.57-12.798,0.698-12.5,14.375-12.158c11.297,0.282,22.575,1.309,33.865,1.958
			c3.04,0.175,4.812,1.029,3.654,4.621c-0.709,2.199-1.18,4.547-1.292,6.851C486.996,88.18,485.153,90.421,481.047,89.02z"/>
	</g>
</g>
</svg>
